0
SECTION
2
HEADER
9
$ACADVER
1
AC1009
9
$INSUNITS
70
4
9
$EXTMIN
10
-35.0
20
-65.0
9
$EXTMAX
10
245.0
20
85.0
0
ENDSEC
0
SECTION
2
TABLES
0
TABLE
2
LTYPE
70
2
0
LTYPE
2
CONTINUOUS
70
0
3
Solid line
72
65
73
0
40
0.0
0
LTYPE
2
CENTER
70
0
3
Center ____ _ ____ _ ____
72
65
73
4
40
20.0
49
12.0
74
0
49
-3.0
74
0
49
2.0
74
0
49
-3.0
74
0
0
ENDTAB
0
TABLE
2
LAYER
70
4
0
LAYER
2
OBRYS
70
0
62
7
6
CONTINUOUS
0
LAYER
2
OSA
70
0
62
4
6
CENTER
0
LAYER
2
KOTY
70
0
62
2
6
CONTINUOUS
0
LAYER
2
TEXT
70
0
62
7
6
CONTINUOUS
0
ENDTAB
0
ENDSEC
0
SECTION
2
ENTITIES
999
MYCAD EXAMPLE - STEPPED SHAFT, ALL DIMENSIONS IN MM
0
TEXT
8
TEXT
10
0.0
20
73.0
40
7.0
1
STUPNOVITA HRIDEL
0
TEXT
8
TEXT
10
0.0
20
63.0
40
3.5
1
MATERIAL: C45   MERITKO 1:1   ROZMERY V mm
0
LINE
8
OBRYS
10
0.0
20
15.0
11
25.0
21
15.0
0
LINE
8
OBRYS
10
25.0
20
15.0
11
25.0
21
22.5
0
LINE
8
OBRYS
10
25.0
20
22.5
11
70.0
21
22.5
0
LINE
8
OBRYS
10
70.0
20
22.5
11
70.0
21
30.0
0
LINE
8
OBRYS
10
70.0
20
30.0
11
120.0
21
30.0
0
LINE
8
OBRYS
10
120.0
20
30.0
11
120.0
21
25.0
0
LINE
8
OBRYS
10
120.0
20
25.0
11
165.0
21
25.0
0
LINE
8
OBRYS
10
165.0
20
25.0
11
165.0
21
17.5
0
LINE
8
OBRYS
10
165.0
20
17.5
11
200.0
21
17.5
0
LINE
8
OBRYS
10
200.0
20
17.5
11
200.0
21
-17.5
0
LINE
8
OBRYS
10
200.0
20
-17.5
11
165.0
21
-17.5
0
LINE
8
OBRYS
10
165.0
20
-17.5
11
165.0
21
-25.0
0
LINE
8
OBRYS
10
165.0
20
-25.0
11
120.0
21
-25.0
0
LINE
8
OBRYS
10
120.0
20
-25.0
11
120.0
21
-30.0
0
LINE
8
OBRYS
10
120.0
20
-30.0
11
70.0
21
-30.0
0
LINE
8
OBRYS
10
70.0
20
-30.0
11
70.0
21
-22.5
0
LINE
8
OBRYS
10
70.0
20
-22.5
11
25.0
21
-22.5
0
LINE
8
OBRYS
10
25.0
20
-22.5
11
25.0
21
-15.0
0
LINE
8
OBRYS
10
25.0
20
-15.0
11
0.0
21
-15.0
0
LINE
8
OBRYS
10
0.0
20
-15.0
11
0.0
21
15.0
0
LINE
8
OSA
6
CENTER
10
-10.0
20
0.0
11
215.0
21
0.0
0
LINE
8
OBRYS
10
0.0
20
15.0
11
3.0
21
12.0
0
LINE
8
OBRYS
10
0.0
20
-15.0
11
3.0
21
-12.0
0
LINE
8
OBRYS
10
200.0
20
17.5
11
197.0
21
14.5
0
LINE
8
OBRYS
10
200.0
20
-17.5
11
197.0
21
-14.5
0
LINE
8
OBRYS
10
75.0
20
30.0
11
75.0
21
26.0
0
LINE
8
OBRYS
10
75.0
20
26.0
11
110.0
21
26.0
0
LINE
8
OBRYS
10
110.0
20
26.0
11
110.0
21
30.0
0
LINE
8
KOTY
10
0.0
20
-15.0
11
0.0
21
-45.0
0
LINE
8
KOTY
10
25.0
20
-22.5
11
25.0
21
-45.0
0
LINE
8
KOTY
10
70.0
20
-30.0
11
70.0
21
-45.0
0
LINE
8
KOTY
10
120.0
20
-30.0
11
120.0
21
-45.0
0
LINE
8
KOTY
10
165.0
20
-25.0
11
165.0
21
-45.0
0
LINE
8
KOTY
10
200.0
20
-17.5
11
200.0
21
-45.0
0
LINE
8
KOTY
10
0.0
20
-40.0
11
200.0
21
-40.0
0
LINE
8
KOTY
10
0.0
20
-40.0
11
4.0
21
-42.0
0
LINE
8
KOTY
10
0.0
20
-40.0
11
4.0
21
-38.0
0
LINE
8
KOTY
10
200.0
20
-40.0
11
196.0
21
-42.0
0
LINE
8
KOTY
10
200.0
20
-40.0
11
196.0
21
-38.0
0
TEXT
8
KOTY
10
94.0
20
-38.0
40
4.0
1
200
0
TEXT
8
KOTY
10
8.0
20
-52.0
40
3.5
1
25
0
TEXT
8
KOTY
10
44.0
20
-52.0
40
3.5
1
45
0
TEXT
8
KOTY
10
91.0
20
-52.0
40
3.5
1
50
0
TEXT
8
KOTY
10
139.0
20
-52.0
40
3.5
1
45
0
TEXT
8
KOTY
10
180.0
20
-52.0
40
3.5
1
35
0
LINE
8
KOTY
10
12.0
20
15.0
11
-15.0
21
15.0
0
LINE
8
KOTY
10
12.0
20
-15.0
11
-15.0
21
-15.0
0
LINE
8
KOTY
10
-10.0
20
-15.0
11
-10.0
21
15.0
0
LINE
8
KOTY
10
-10.0
20
-15.0
11
-12.0
21
-11.0
0
LINE
8
KOTY
10
-10.0
20
-15.0
11
-8.0
21
-11.0
0
LINE
8
KOTY
10
-10.0
20
15.0
11
-12.0
21
11.0
0
LINE
8
KOTY
10
-10.0
20
15.0
11
-8.0
21
11.0
0
TEXT
8
KOTY
10
-13.0
20
-5.0
40
4.0
50
90.0
1
D30
0
LINE
8
KOTY
10
52.0
20
22.5
11
52.0
21
45.0
0
LINE
8
KOTY
10
52.0
20
45.0
11
25.0
21
45.0
0
TEXT
8
KOTY
10
30.0
20
47.0
40
3.5
1
D45 h6
0
LINE
8
KOTY
10
95.0
20
30.0
11
95.0
21
53.0
0
LINE
8
KOTY
10
95.0
20
53.0
11
70.0
21
53.0
0
TEXT
8
KOTY
10
74.0
20
55.0
40
3.5
1
D60
0
LINE
8
KOTY
10
145.0
20
25.0
11
145.0
21
45.0
0
LINE
8
KOTY
10
145.0
20
45.0
11
120.0
21
45.0
0
TEXT
8
KOTY
10
124.0
20
47.0
40
3.5
1
D50 h6
0
CIRCLE
8
OBRYS
10
225.0
20
0.0
40
17.5
0
LINE
8
OSA
6
CENTER
10
202.5
20
0.0
11
247.5
21
0.0
0
LINE
8
OSA
6
CENTER
10
225.0
20
-22.5
11
225.0
21
22.5
0
TEXT
8
TEXT
10
211.0
20
-29.0
40
3.0
1
POHLED ZPRAVA
0
TEXT
8
TEXT
10
0.0
20
-62.0
40
3.0
1
HRANY SRAZIT 1x45 ST.   NEUVEDENE POLOMERY R1   POVRCH Ra 3.2
0
ENDSEC
0
EOF
